<svg xmlns="http://www.w3.org/2000/svg" viewBox="0 0 24 24" fill="none">
    <path d="M18.9333 13.6V18.7552C18.9335 18.9187 18.9014 19.0806 18.8389 19.2317C18.7764 19.3828 18.6847 19.5201 18.5691 19.6357C18.4534 19.7513 18.3162 19.843 18.1651 19.9055C18.014 19.968 17.852 20.0001 17.6885 20H5.2448C5.08129 20.0001 4.91936 19.968 4.76827 19.9055C4.61718 19.843 4.4799 19.7513 4.36428 19.6357C4.24866 19.5201 4.15698 19.3828 4.09447 19.2317C4.03196 19.0806 3.99986 18.9187 4 18.7552V6.31147C3.99986 6.14796 4.03196 5.98603 4.09447 5.83494C4.15698 5.68385 4.24866 5.54657 4.36428 5.43095C4.4799 5.31533 4.61718 5.22364 4.76827 5.16114C4.91936 5.09863 5.08129 5.06653 5.2448 5.06667H10.1707M13.8475 4H20V10.1525M11.5851 12.4149L19.8816 4.1184" stroke-width="2" stroke="#fff" stroke-linecap="round" stroke-linejoin="round"/>
</svg>